<?xml version="1.0" encoding="UTF-8"?> <svg xmlns="http://www.w3.org/2000/svg" width="160" height="55" viewBox="0 0 160 55" fill="none"> <path d="M17.0026 44.6905C16.5932 44.3945 16.2881 43.9769 16.131 43.4974C15.9738 43.0179 15.9726 42.5011 16.1276 42.0209L16.6281 39.9538C16.7175 39.5905 16.8824 39.2499 17.1121 38.9543C17.3418 38.6586 17.6312 38.4145 17.9616 38.2377L19.6045 37.3758C20.618 36.8499 21.4273 36.0022 21.9047 34.9663C22.3821 33.9305 22.5003 32.7655 22.2409 31.6552L22.218 31.5522C21.9138 30.3088 21.1559 29.2234 20.0924 28.5082C19.0289 27.793 17.7364 27.4995 16.4676 27.6851L14.6298 27.9483C14.2562 28.0018 13.8754 27.9758 13.5126 27.8719C13.1497 27.7681 12.813 27.5887 12.5246 27.3457L10.9007 25.9689C10.4977 25.668 10.1984 25.2493 10.0444 24.771C9.89035 24.2927 9.88918 23.7784 10.041 23.2993C10.3868 22.2381 10.3769 21.0933 10.0128 20.0382C9.64878 18.983 8.95041 18.0749 8.02332 17.4511C7.09623 16.8274 5.99086 16.5219 4.87438 16.5809C3.75791 16.64 2.69105 17.0603 1.83518 17.7783C0.979305 18.4964 0.380963 19.473 0.130649 20.5607C-0.119665 21.6483 -0.00833613 22.7877 0.447798 23.8066C0.903931 24.8255 1.68006 25.6684 2.6588 26.2078C3.63754 26.7473 4.76565 26.9539 5.87252 26.7965C6.05209 26.7698 6.22785 26.7317 6.40361 26.6897L6.88121 26.5982C7.27788 26.52 7.68717 26.5325 8.07829 26.6349C8.4694 26.7373 8.83217 26.9268 9.13931 27.1893L11.3477 29.0962C11.6853 29.3912 11.943 29.7663 12.0972 30.1868C12.2515 30.6073 12.2973 31.0598 12.2304 31.5026L12.1769 31.8382L12.131 32.1319V32.1586C12.0592 32.7707 12.098 33.3907 12.2456 33.9892C12.2456 34.0235 12.2456 34.0578 12.2724 34.0883V34.1265C12.4842 34.9381 12.8937 35.6848 13.4645 36.3003C13.5333 36.3728 13.602 36.4414 13.6746 36.51L13.9153 36.7503C14.2331 37.0719 14.4639 37.4687 14.5862 37.9036C14.7085 38.3384 14.7183 38.7972 14.6145 39.2368L13.9421 42.0628C13.8496 42.4556 13.6683 42.8221 13.412 43.1341C13.1557 43.4461 12.8312 43.6954 12.4634 43.8629L12.0508 44.0536C11.8823 44.1192 11.7178 44.1943 11.5579 44.2786C10.8063 44.6745 10.1655 45.2513 9.69333 45.9566C8.91306 47.0733 8.60915 48.4536 8.84848 49.7939C9.0878 51.1342 9.85075 52.3247 10.9695 53.1035C12.0882 53.8823 13.4711 54.1857 14.8139 53.9468C16.1567 53.7079 17.3494 52.9464 18.1297 51.8297C18.5915 51.1979 18.9013 50.4684 19.0352 49.6979C19.0702 49.5241 19.0945 49.3483 19.1078 49.1716L19.1613 48.7215C19.1308 47.9303 18.9206 47.1564 18.5466 46.4581C18.1727 45.7598 17.6447 45.1554 17.0026 44.6905Z" fill="#EDEDED"></path> <path d="M56.297 20.1337C56.0261 19.3058 55.5489 18.5601 54.9102 17.9666C54.2715 17.3732 53.4921 16.9514 52.6454 16.741C51.7986 16.5306 50.9121 16.5383 50.0692 16.7635C49.2263 16.9887 48.4545 17.424 47.8262 18.0286C47.6923 18.1489 47.5647 18.2762 47.4442 18.4099L47.1347 18.7455C46.8607 19.0416 46.5231 19.2719 46.1473 19.4192C45.7714 19.5665 45.367 19.627 44.9644 19.596L42.0606 19.3595C41.6092 19.3223 41.1746 19.1711 40.7977 18.9203C40.4207 18.6695 40.1138 18.3272 39.9057 17.9256L39.7529 17.6243C39.707 17.5328 39.665 17.4451 39.6153 17.3612V17.3345C39.3137 16.7956 38.9162 16.3162 38.4423 15.9196L38.3659 15.8586L38.3315 15.8281C37.6814 15.2987 36.9114 14.936 36.0887 14.7717H36.0581L35.7639 14.7221L35.4239 14.6954C34.9773 14.6224 34.5566 14.4375 34.2011 14.1581C33.8456 13.8786 33.5669 13.5137 33.3912 13.0974L32.2679 10.4278C32.1131 10.0549 32.0451 9.65183 32.0689 9.24888C32.0927 8.84594 32.2078 8.45363 32.4054 8.10147L32.6309 7.7201C32.7277 7.56755 32.8155 7.41119 32.8945 7.25102C33.2405 6.54995 33.4196 5.77862 33.4179 4.99711C33.3814 3.65941 32.8234 2.38873 31.8625 1.45546C30.9017 0.522192 29.6139 0 28.2732 0C26.9325 0 25.6448 0.522192 24.6839 1.45546C23.7231 2.38873 23.165 3.65941 23.1285 4.99711C23.1268 5.77862 23.306 6.54995 23.6519 7.25102C23.7335 7.41119 23.8213 7.56755 23.9156 7.7201L24.141 8.10147C24.3386 8.45363 24.4537 8.84594 24.4775 9.24888C24.5014 9.65183 24.4333 10.0549 24.2786 10.4278L23.1552 13.0974C22.9809 13.5117 22.7046 13.8754 22.3519 14.1547C21.9993 14.4341 21.5817 14.62 21.1379 14.6954L20.8054 14.7488L20.5074 14.7984H20.4807C19.8732 14.9178 19.2929 15.1479 18.7689 15.4772L18.6925 15.5268C18.6772 15.5334 18.663 15.5424 18.6505 15.5535C17.9419 16.0071 17.3575 16.6296 16.9502 17.365V17.3917C16.9044 17.4756 16.8585 17.5671 16.8165 17.6548C14.7303 22.1245 19.2962 24.6034 19.8732 24.7559C20.5779 24.9685 21.3187 25.0348 22.05 24.9509C22.7814 24.8669 23.4878 24.6345 24.1257 24.2678L24.2212 24.2068C25.3099 23.5325 26.1065 22.4761 26.4543 21.2454C26.8022 20.0146 26.6762 18.6984 26.1011 17.5557L25.2682 15.8776C25.1016 15.5394 25.0087 15.1698 24.9955 14.7932C24.9823 14.4165 25.0492 14.0414 25.1917 13.6924L25.9865 11.7245C26.1472 11.2488 26.4534 10.8355 26.862 10.5427C27.2705 10.2499 27.7607 10.0925 28.2637 10.0925C28.7666 10.0925 29.2569 10.2499 29.6654 10.5427C30.0739 10.8355 30.3801 11.2488 30.5409 11.7245L31.3509 13.6924C31.494 14.0411 31.5615 14.4161 31.549 14.7928C31.5365 15.1694 31.4442 15.5391 31.2783 15.8776L30.4568 17.5404C29.9449 18.5633 29.7909 19.7279 30.0195 20.8484C30.248 21.9689 30.8459 22.9807 31.7177 23.7224L31.7979 23.7949C32.4656 24.3567 33.266 24.7392 34.1231 24.906C34.9803 25.0729 35.8659 25.0186 36.6962 24.7483C37.4576 24.5059 38.1504 24.0863 38.7174 23.5241L40.0509 22.2313C40.3196 21.9646 40.6425 21.7586 40.9977 21.627C41.353 21.4955 41.7324 21.4414 42.1103 21.4685L44.2347 21.6287C44.7373 21.6353 45.2254 21.7978 45.6314 22.0937C46.0374 22.3895 46.3411 22.8042 46.5004 23.28C46.8252 24.2792 47.6467 26.1975 50.6536 26.7734C51.5181 26.8954 52.3994 26.7959 53.2147 26.4843C54.03 26.1727 54.7524 25.6593 55.3142 24.9922C55.8759 24.3251 56.2583 23.5264 56.4256 22.6711C56.5928 21.8158 56.5394 20.9322 56.2702 20.1032L56.297 20.1337Z" fill="#EC1D35"></path> <path d="M37.7269 27.8834C37.03 28.1231 36.3903 28.5039 35.8479 29.002C35.3054 29.5001 34.872 30.1048 34.5747 30.778C34.5747 30.8123 34.5441 30.8466 34.5327 30.8809C34.0539 32.066 34.0344 33.3865 34.478 34.5851C34.9216 35.7837 35.7965 36.7745 36.9322 37.3643L38.5789 38.2262C38.9122 38.4026 39.2044 38.6473 39.4362 38.9444C39.6679 39.2415 39.8342 39.5842 39.9239 39.95L40.4282 42.017C40.5824 42.4965 40.581 43.0124 40.4242 43.4911C40.2673 43.9698 39.9631 44.3868 39.5548 44.6827C39.1465 44.9786 38.6551 45.1383 38.1505 45.139C37.6459 45.1397 37.154 44.9814 36.7449 44.6866L34.9301 43.573C34.6083 43.377 34.3316 43.1153 34.1183 42.805C33.9049 42.4948 33.7597 42.1431 33.6921 41.7729L33.3788 39.9461C33.1927 38.8185 32.6344 37.7854 31.7926 37.0108C30.9508 36.2362 29.8738 35.7646 28.7327 35.671H28.6219C27.3433 35.5786 26.0763 35.9662 25.0691 36.7577C24.0619 37.5492 23.3872 38.6877 23.1772 39.95C22.4513 44.2976 26.3676 45.7125 27.8845 45.907H28.0258C28.864 45.9548 29.7011 45.7964 30.4635 45.4455H30.4903L30.7577 45.312L31.0596 45.1595C31.4639 44.9561 31.9133 44.8586 32.3657 44.8759C32.8181 44.8932 33.2588 45.0249 33.6463 45.2586L36.1336 46.7841C36.4791 46.9934 36.7721 47.2789 36.99 47.6187C37.2078 47.9585 37.3449 48.3435 37.3907 48.7444L37.4441 49.1944C37.4561 49.3747 37.4778 49.5542 37.5091 49.7321C37.6586 50.5917 38.0249 51.3991 38.5735 52.0782C39.1221 52.7574 39.835 53.2859 40.6449 53.6139C41.4548 53.9419 42.335 54.0586 43.2026 53.9531C44.0702 53.8475 44.8966 53.5232 45.6039 53.0106C46.3111 52.498 46.8759 51.8141 47.2451 51.0233C47.6142 50.2325 47.7755 49.3609 47.7137 48.4907C47.6519 47.6204 47.3691 46.7802 46.892 46.0493C46.4148 45.3184 45.759 44.7208 44.9864 44.3128C44.826 44.2289 44.6617 44.1565 44.4935 44.0878L44.0809 43.8971C43.7136 43.7301 43.3893 43.4813 43.1331 43.17C42.8768 42.8587 42.6952 42.493 42.6022 42.1009L41.9298 39.2711C41.8261 38.8315 41.8358 38.3727 41.9581 37.9378C42.0804 37.503 42.3112 37.1062 42.629 36.7846L42.8697 36.5443C42.9423 36.4757 43.0111 36.407 43.0798 36.3346V36.3117C43.5007 35.8602 43.8348 35.3353 44.0656 34.7633L44.1 34.6756V34.6336C44.4035 33.8527 44.511 33.0095 44.4133 32.1776V32.1471C43.7332 27.1778 38.8273 27.4753 37.7269 27.8834Z" fill="#402FFF"></path> <path d="M80.8599 45.5962V41.5422H75.8929C74.761 41.5171 73.6551 41.1991 72.6834 40.6193C71.6135 39.99 69.7184 37.9039 69.1338 37.0763C68.5579 36.1807 68.27 35.1308 68.3085 34.0673V19.4532C68.2648 18.3759 68.5528 17.3111 69.1338 16.4022C69.7184 15.6395 71.6135 13.5381 72.6834 12.905C73.6562 12.3281 74.7616 12.0116 75.8929 11.9859H80.8599V8.05017H86.2587V11.9783H91.1073C92.2376 12.01 93.3416 12.3261 94.3168 12.8974C95.3867 13.5305 97.2359 15.6166 97.8702 16.3946C98.4494 17.3043 98.7373 18.3685 98.6955 19.4455V34.0597C98.7323 35.123 98.4445 36.1724 97.8702 37.0687C97.2359 37.8963 95.3867 39.9824 94.3168 40.6116C93.3426 41.1858 92.2382 41.5034 91.1073 41.5345H86.2587V45.5885L80.8599 45.5962ZM76.0113 35.8636H80.8599V17.6569H76.061C75.3766 18.184 74.7706 18.8055 74.2614 19.5027V34.0673C74.7562 34.746 75.3455 35.3508 76.0113 35.8636ZM92.7618 19.4646C92.2944 18.7633 91.7011 18.1543 91.0118 17.6683H86.2587V35.875H90.9622C91.6223 35.3396 92.2254 34.7377 92.7618 34.0787V19.4646Z" fill="#EDEDED"></path> <path d="M124.413 20.7153C123.88 19.4625 122.981 18.3991 121.834 17.6644H113.191C112.46 18.2113 111.816 18.8658 111.281 19.6055V34.0748C111.771 34.8119 112.425 35.4265 113.191 35.871H121.929C122.976 35.1096 123.828 34.111 124.413 32.9573L129.957 34.3188C129.555 35.4263 128.998 36.4715 128.302 37.4232C127.133 39.0745 124.864 41.5496 121.883 41.5496H112.947C111.816 41.518 110.711 41.2004 109.737 40.6267C108.717 39.9975 106.868 38.0563 106.188 37.1334C105.639 36.2258 105.352 35.1845 105.358 34.1243V19.4034C105.315 18.3388 105.605 17.287 106.188 16.3944C106.768 15.6317 108.667 13.5799 109.787 12.8972C110.751 12.3419 111.835 12.0267 112.947 11.9781H121.887C124.852 11.9781 127.091 14.4532 128.257 16.055C128.947 17.0057 129.504 18.0463 129.911 19.1479L124.413 20.7153Z" fill="#EDEDED"></path> <path d="M154.066 41.302V17.8515H141.775V41.302H135.841V13.809C135.843 13.3797 136.015 12.9686 136.319 12.6651C136.623 12.3616 137.035 12.1901 137.465 12.1881H158.376C158.806 12.1901 159.218 12.3616 159.522 12.6651C159.826 12.9686 159.998 13.3797 160 13.809V41.3211L154.066 41.302Z" fill="#EDEDED"></path> </svg> 